<?xml version="1.0" standalone="no"?>
<!DOCTYPE svg PUBLIC "-//W3C//DTD SVG 20010904//EN"
 "http://www.w3.org/TR/2001/REC-SVG-20010904/DTD/svg10.dtd">
<svg version="1.0" xmlns="http://www.w3.org/2000/svg"
 width="260.000000pt" height="260.000000pt" viewBox="0 0 260.000000 260.000000"
 preserveAspectRatio="xMidYMid meet">
<metadata>
Created by potrace 1.14, written by Peter Selinger 2001-2017
</metadata>
<g transform="translate(0.000000,260.000000) scale(0.100000,-0.100000)"
fill="#000000" stroke="none">
<path d="M1154 2574 c-5 -1 -26 -5 -47 -9 -21 -3 -35 -10 -32 -15 3 -5 -4 -7
-15 -5 -11 2 -20 0 -20 -5 0 -5 -9 -7 -20 -5 -11 2 -20 0 -20 -5 0 -5 -7 -7
-15 -4 -8 4 -15 1 -15 -7 0 -7 -3 -9 -7 -6 -3 4 -15 0 -25 -10 -10 -9 -18 -13
-18 -9 0 4 -7 0 -16 -9 -21 -21 -9 -31 44 -34 24 -2 12 -31 -13 -31 -14 0 -25
-4 -25 -8 0 -5 -16 -9 -35 -10 -74 -3 -85 -5 -85 -12 0 -5 -11 -7 -25 -5 -14
1 -25 -2 -25 -7 0 -5 -4 -7 -8 -4 -7 4 -49 -35 -44 -41 12 -15 -29 -40 -74
-47 -19 -3 -27 -35 -9 -37 6 -1 16 -10 23 -20 7 -11 21 -19 30 -20 11 0 12 -2
4 -6 -6 -2 -10 -9 -6 -14 3 -5 -1 -9 -10 -9 -8 0 -16 -5 -18 -12 -5 -14 -25
-18 -113 -20 -43 -1 -75 -6 -83 -15 -11 -11 -10 -13 5 -13 15 0 16 -2 3 -10
-8 -5 -10 -10 -4 -10 7 0 14 -9 17 -21 4 -15 2 -18 -7 -10 -8 7 -12 4 -13 -10
-1 -11 5 -23 13 -26 11 -4 12 -8 3 -20 -8 -9 -8 -13 -2 -11 6 2 12 -1 14 -7 1
-5 9 -16 18 -23 13 -11 13 -12 1 -7 -9 4 -8 1 3 -8 14 -11 15 -16 5 -20 -8 -3
-6 -6 6 -6 13 -1 17 -6 13 -21 -3 -10 -1 -18 3 -17 4 1 7 -2 7 -6 -1 -5 6 -13
16 -18 9 -6 17 -19 17 -30 0 -11 5 -17 10 -14 6 3 10 -1 10 -9 0 -8 8 -20 17
-25 10 -6 15 -11 11 -11 -4 0 3 -20 17 -45 13 -25 19 -43 14 -40 -5 3 -6 -1
-3 -9 3 -9 9 -16 13 -16 4 0 8 -12 9 -27 1 -14 -1 -23 -5 -20 -3 4 -12 2 -20
-4 -9 -8 -13 -8 -13 -1 0 6 -8 11 -17 11 -58 2 -83 5 -83 11 0 4 -29 7 -64 7
-35 0 -68 3 -73 6 -4 3 -23 -1 -41 -8 -30 -13 -31 -16 -21 -39 7 -14 16 -23
20 -20 5 3 9 0 9 -6 0 -10 141 -153 264 -267 31 -29 56 -59 56 -68 0 -8 4 -15
10 -15 5 0 9 -6 7 -12 -1 -7 3 -12 10 -11 8 2 10 -4 6 -14 -5 -12 -3 -14 8 -9
8 4 5 0 -6 -8 -11 -9 -25 -14 -32 -12 -7 3 -15 0 -19 -6 -4 -7 -9 -6 -14 3 -7
10 -11 10 -24 0 -11 -10 -16 -10 -16 -2 0 8 -5 9 -19 1 -14 -7 -22 -7 -26 0
-4 6 -12 7 -18 3 -15 -9 -31 -12 -79 -14 -20 -1 -35 -6 -33 -10 3 -4 -2 -9
-10 -13 -8 -3 -15 -13 -15 -21 0 -10 -5 -13 -12 -9 -10 6 -10 5 -1 -7 6 -8 12
-32 14 -54 1 -22 6 -45 10 -50 5 -6 10 -33 12 -59 2 -27 11 -52 18 -57 12 -7
11 -9 -1 -9 -13 0 -13 -2 -1 -9 12 -8 18 -31 24 -103 1 -10 5 -18 10 -18 5 0
4 -6 -2 -14 -7 -8 -8 -17 -3 -20 5 -3 10 -24 10 -47 1 -23 6 -45 12 -49 18
-11 7 -45 -13 -44 -9 1 -17 -2 -17 -6 0 -4 -18 -6 -40 -5 -28 2 -47 -3 -63
-16 -12 -10 -16 -18 -9 -19 14 0 15 -9 3 -28 -8 -13 -38 -21 -88 -24 -13 -1
-23 -4 -23 -7 0 -4 -12 -7 -28 -8 -40 -4 -56 -8 -69 -16 -7 -5 -17 -6 -22 -3
-12 8 -42 -4 -37 -13 3 -4 -5 -7 -17 -8 -62 -1 -57 15 -57 -203 l0 -200 1300
0 1300 0 -2 208 c-3 176 -5 207 -18 208 -8 0 -23 4 -32 9 -10 4 -25 4 -34 1
-9 -3 -12 -2 -8 5 4 7 -3 10 -17 8 -23 -2 -36 1 -87 22 -17 6 -21 6 -16 -2 4
-8 1 -8 -12 -1 -11 6 -21 10 -24 9 -13 -2 -39 20 -38 33 3 45 -1 49 -42 45
-24 -2 -40 1 -40 7 0 6 -6 6 -15 -2 -10 -8 -15 -9 -15 -2 0 6 -6 9 -14 6 -8
-3 -16 3 -19 15 -3 12 -1 21 5 21 5 0 7 4 4 9 -4 5 -1 11 5 13 6 2 11 21 12
43 1 22 6 46 11 54 5 8 4 16 -4 21 -9 5 -9 9 -1 14 6 4 9 12 6 17 -4 5 -2 9 2
9 5 0 8 12 8 28 -1 15 3 32 7 38 4 6 10 24 12 40 3 16 9 46 14 67 6 20 8 37 5
37 -3 0 1 8 8 17 12 15 12 16 -1 8 -13 -8 -13 -6 -1 8 14 18 21 97 8 97 -5 0
-6 4 -3 9 7 11 -52 33 -65 25 -5 -3 -9 -1 -9 4 0 5 -13 8 -30 6 -16 -2 -32 1
-36 7 -4 8 -9 7 -15 -2 -7 -12 -9 -12 -9 0 0 11 -3 11 -15 1 -8 -7 -15 -8 -15
-3 0 5 -7 10 -15 10 -8 0 -15 -5 -15 -10 0 -5 -6 -4 -14 2 -10 8 -16 9 -21 2
-8 -15 -43 8 -41 26 1 8 8 18 15 22 7 5 12 12 12 17 -2 14 32 74 42 74 5 0 24
16 43 36 19 20 34 34 34 31 0 -4 45 39 100 94 55 55 100 105 100 110 0 5 7 9
16 9 8 0 12 5 9 10 -3 6 -1 10 5 10 6 0 10 10 8 23 -3 21 -8 22 -88 23 -49 1
-91 -3 -99 -10 -12 -9 -13 -8 -6 3 6 10 4 12 -5 6 -7 -4 -27 -10 -44 -12 -50
-6 -60 -8 -73 -16 -8 -5 -14 -3 -15 5 0 7 -2 20 -3 28 -1 8 6 29 14 45 8 17
14 33 13 38 -1 4 2 7 7 7 5 0 8 11 7 25 -2 13 0 23 3 22 3 -2 16 7 28 20 12
13 17 23 10 23 -6 0 -1 7 11 16 12 8 20 20 17 25 -4 5 1 12 9 15 9 3 13 10 10
15 -3 5 0 9 6 9 6 0 8 5 5 10 -3 6 -1 10 5 10 6 0 8 5 5 10 -3 6 -2 10 2 10 9
0 37 59 34 73 0 4 3 7 8 7 5 0 11 9 14 21 5 18 2 20 -16 15 -20 -5 -20 -4 -4
8 9 7 17 16 17 19 0 4 -8 4 -17 0 -12 -4 -10 1 6 14 37 31 19 41 -69 41 -57 0
-87 4 -105 16 -28 18 -52 56 -35 56 5 0 9 3 8 8 -1 4 3 17 10 30 7 12 10 27 7
32 -3 6 -1 10 5 10 7 0 4 7 -5 16 -15 15 -18 15 -37 -2 -14 -13 -19 -14 -13
-4 6 12 5 13 -6 3 -20 -19 -32 -16 -26 7 3 11 1 18 -4 14 -5 -3 -9 4 -9 15 0
12 -6 22 -12 23 -7 0 -20 2 -28 2 -8 1 -14 7 -13 13 1 6 -6 9 -19 5 -13 -3
-26 1 -34 13 -8 10 -20 15 -29 11 -9 -3 -13 -2 -10 4 3 6 0 10 -8 10 -8 0 -29
8 -48 17 -31 15 -46 20 -86 25 -7 1 -13 6 -13 11 0 6 -3 7 -6 4 -4 -3 -15 -2
-26 4 -26 14 -56 21 -95 22 -18 1 -33 4 -33 7 0 4 -6 7 -12 8 -50 5 -76 9 -84
14 -9 4 -53 10 -101 12 -13 1 -23 5 -23 10 0 4 -9 6 -20 3 -11 -3 -20 -2 -20
2 0 7 -36 10 -56 5z m-664 -508 c0 -3 -4 -8 -10 -11 -5 -3 -10 -1 -10 4 0 6 5
11 10 11 6 0 10 -2 10 -4z"/>
</g>
</svg>
